<?xml version="1.0" standalone="no"?><!DOCTYPE svg PUBLIC "-//W3C//DTD SVG 1.1//EN"
        "http://www.w3.org/Graphics/SVG/1.1/DTD/svg11.dtd">
<svg t="1702628742133" class="icon" viewBox="0 0 1024 1024" version="1.1" xmlns="http://www.w3.org/2000/svg" p-id="7098"
     xmlns:xlink="http://www.w3.org/1999/xlink" width="24" height="24">
    <path d="M863.701333 202.965333a256 256 0 0 1 10.069334 351.402667l-346.709334 347.221333a21.333333 21.333333 0 0 1-30.208 0l-346.624-347.221333a256 256 0 0 1 361.813334-361.130667 255.914667 255.914667 0 0 1 351.658666 9.728zM220.672 263.338667a170.666667 170.666667 0 0 0-8.192 232.576L512 795.904l299.52-299.946667a170.666667 170.666667 0 0 0-240.896-240.64L421.504 404.48a42.666667 42.666667 0 0 1-60.373333-60.373333l90.368-90.410667-3.498667-2.944a170.666667 170.666667 0 0 0-227.328 12.586667z"
          fill="#000000" p-id="7099"></path>
</svg>