<?xml version="1.0" standalone="no"?>
<!DOCTYPE svg PUBLIC "-//W3C//DTD SVG 1.1//EN"
        "http://www.w3.org/Graphics/SVG/1.1/DTD/svg11.dtd">
<svg class="icon"
     viewBox="0 0 1024 1024"
     version="1.1"
     xmlns="http://www.w3.org/2000/svg"
     width="24"
     height="24">
    <path d="M415.93 223.79c0-52.98 43.004-95.984 95.984-95.984s95.984 43.004 95.984 95.984-43.004 95.984-95.984 95.984-95.984-43.003-95.984-95.984zM415.93 511.742c0-52.98 43.004-95.984 95.984-95.984s95.984 43.004 95.984 95.984-43.004 95.984-95.984 95.984-95.984-43.004-95.984-95.984zM415.93 799.866c0-52.98 43.004-95.984 95.984-95.984s95.984 43.003 95.984 95.984-43.004 95.983-95.984 95.983-95.984-43.175-95.984-95.983z"/>
</svg>